<svg width="547.3000000000001" height="94.01086991441957" viewBox="0 0 369.66666666666663 63.498419352634926" class="looka-1j8o68f"><defs id="SvgjsDefs1162"></defs><g id="SvgjsG1163" featurekey="HdFLvg-0" transform="matrix(0.8682183260677544,0,0,0.8682183260677544,-3.48850134343591,-8.500983846523544)" fill="#01aac1"><g xmlns="http://www.w3.org/2000/svg"><g><line fill="none" stroke="#01aac1" stroke-linecap="round" stroke-miterlimit="10" x1="42.103" y1="49.798" x2="42.058" y2="52.711"></line><line fill="none" stroke="#01aac1" stroke-linecap="round" stroke-miterlimit="10" x1="53.844" y1="50.184" x2="53.868" y2="52.711"></line><path fill="none" stroke="#01aac1" stroke-linecap="round" stroke-miterlimit="10" d="M37.932,53.381    c0.585,4.779,4.89,8.49,10.114,8.49c5.138,0,9.207-3.931,9.903-8.596"></path><line fill="#01aac1" stroke="#01aac1" stroke-miterlimit="10" x1="58.001" y1="53.275" x2="53.868" y2="52.711"></line><line fill="#01aac1" stroke="#01aac1" stroke-linecap="round" stroke-miterlimit="10" x1="37.932" y1="53.314" x2="41.913" y2="52.711"></line><path fill="none" stroke="#01aac1" stroke-linecap="round" stroke-miterlimit="10" d="M36.454,32.839    c0-6.863,5.047-12.426,11.273-12.426S59,25.976,59,32.839S54.175,50.92,47.949,50.92S36.454,39.702,36.454,32.839z"></path><line fill="none" stroke="#01aac1" stroke-width="0.9657" stroke-linecap="round" stroke-miterlimit="10" x1="8.213" y1="47.78" x2="8.18" y2="49.798"></line><line fill="none" stroke="#01aac1" stroke-width="0.9657" stroke-linecap="round" stroke-miterlimit="10" x1="16.934" y1="48.048" x2="16.951" y2="49.798"></line><path fill="none" stroke="#01aac1" stroke-linecap="round" stroke-miterlimit="10" d="M5.116,50.296    c0.435,3.55,3.632,6.305,7.512,6.305c3.816,0,6.838-2.92,7.355-6.384"></path><line fill="#01aac1" stroke="#01aac1" stroke-linecap="round" stroke-miterlimit="10" x1="20.021" y1="50.217" x2="16.951" y2="49.798"></line><line fill="#01aac1" stroke="#01aac1" stroke-linecap="round" stroke-miterlimit="10" x1="5.116" y1="50.246" x2="8.072" y2="49.798"></line><path fill="none" stroke="#01aac1" stroke-linecap="round" stroke-miterlimit="10" d="M4.018,35.039    c0-5.097,3.749-9.229,8.373-9.229s8.373,4.132,8.373,9.229s-3.584,13.429-8.208,13.429S4.018,40.136,4.018,35.039z"></path><line fill="none" stroke="#01aac1" stroke-width="0.9456" stroke-linecap="round" stroke-miterlimit="10" x1="81.88" y1="48.086" x2="81.846" y2="50.021"></line><line fill="none" stroke="#01aac1" stroke-width="0.9456" stroke-linecap="round" stroke-miterlimit="10" x1="90.6" y1="48.343" x2="90.618" y2="50.021"></line><path fill="none" stroke="#01aac1" stroke-linecap="round" stroke-miterlimit="10" d="M78.782,50.519    c0.435,3.55,3.632,6.305,7.512,6.305c3.816,0,6.838-2.92,7.355-6.384"></path><line fill="#01aac1" stroke="#01aac1" stroke-linecap="round" stroke-miterlimit="10" x1="93.688" y1="50.44" x2="90.618" y2="50.021"></line><line fill="#01aac1" stroke="#01aac1" stroke-linecap="round" stroke-miterlimit="10" x1="78.782" y1="50.469" x2="81.739" y2="50.021"></line><path fill="none" stroke="#01aac1" stroke-linecap="round" stroke-miterlimit="10" d="M77.684,35.262    c0-5.097,3.749-9.229,8.373-9.229c4.624,0,8.373,4.132,8.373,9.229s-3.584,13.429-8.208,13.429    C81.598,48.691,77.684,40.359,77.684,35.262z"></path><circle fill="none" stroke="#01aac1" stroke-width="1.5" stroke-linecap="round" stroke-miterlimit="10" cx="48.766" cy="40.754" r="24.052"></circle><path fill="none" stroke="#01aac1" stroke-linecap="round" stroke-miterlimit="10" d="M62.058,64.8l3.223,6.774    c0.656,1.29,0.141,2.868-1.149,3.524l0,0c-1.29,0.656-2.868,0.141-3.524-1.149l-3.223-6.774"></path><path fill="none" stroke="#01aac1" stroke-linecap="round" stroke-miterlimit="10" d="M58.24,69.61"></path><path fill="none" stroke="#01aac1" stroke-linecap="round" stroke-miterlimit="10" d="M62.81,62.594    c0.326,0.667,0.124,1.455-0.442,1.891c-0.081,0.062-0.169,0.117-0.265,0.164l-4.822,2.353l-0.226,0.11    c-0.763,0.372-1.682,0.056-2.055-0.707l0,0c-0.372-0.763-0.056-1.682,0.707-2.055l5.048-2.463    C61.518,61.515,62.438,61.831,62.81,62.594L62.81,62.594z"></path><path fill="none" stroke="#01aac1" stroke-linecap="round" stroke-miterlimit="10" d="M65.486,29.673    c0.746,1.327,1.359,2.755,1.819,4.271c1.908,6.299,0.751,12.797-2.615,17.89"></path><path fill="none" stroke="#01aac1" stroke-linecap="round" stroke-miterlimit="10" d="M100,54.893"></path></g></g></g><g id="SvgjsG1164" featurekey="VomJeJ-0" transform="matrix(3.3350011901449634,0,0,3.3350011901449634,101.66599950406386,-17.608813344686464)" fill="#111111"><path d="M0.4 19.32 q0.02 -0.52 0.27 -1.14 t0.59 -0.98 q1.6 0.84 2.78 0.84 q0.56 0 0.86 -0.19 t0.3 -0.51 q0 -0.6 -0.92 -0.9 l-1.1 -0.42 q-2.5 -0.92 -2.5 -3 q0 -1.52 1.05 -2.41 t2.83 -0.89 q0.88 0 1.94 0.25 t1.74 0.59 q0.04 0.56 -0.22 1.23 t-0.64 0.95 q-1.68 -0.76 -2.8 -0.76 q-0.4 0 -0.61 0.18 t-0.21 0.46 q0 0.48 0.76 0.76 l1.24 0.44 q2.66 0.94 2.66 3.22 q0 1.5 -1.1 2.38 t-3.14 0.88 t-3.78 -0.98 z M18.58 13.4 l0 4.1 q0 1.34 0.5 1.98 q-0.76 0.68 -1.84 0.68 q-1.04 0 -1.42 -0.48 t-0.38 -1.46 l0 -4.26 q0 -0.68 -0.18 -1 t-0.7 -0.32 q-0.3 0 -0.68 0.16 t-0.78 0.52 l0 6.68 q-0.66 0.12 -1.52 0.12 t-1.52 -0.12 l0 -14.58 l0.14 -0.14 l1.2 0 q0.96 0 1.33 0.42 t0.37 1.46 l0 3.78 q1.34 -1.1 2.68 -1.1 t2.07 0.97 t0.73 2.59 z M28.119999999999997 10.9 q1.44 1.44 1.44 4.12 q0 1.2 -0.31 2.18 t-0.9 1.67 t-1.45 1.06 t-1.98 0.37 t-1.97 -0.38 t-1.44 -1.07 t-0.89 -1.67 t-0.3 -2.16 q0 -1.2 0.3 -2.17 t0.88 -1.67 t1.44 -1.08 t1.98 -0.38 q1.98 0 3.2 1.18 z M24.939999999999998 12.059999999999999 q-0.44 0 -0.71 0.21 t-0.43 0.57 t-0.22 0.83 t-0.06 1.01 q0 0.84 0.05 1.45 t0.2 1.02 t0.42 0.61 t0.71 0.2 q0.88 0 1.16 -0.77 t0.28 -2.19 q0 -1.44 -0.28 -2.19 t-1.12 -0.75 z M36.26 20.2 q-0.92 0 -1.84 -0.42 l0 2.66 q0 1.04 -0.38 1.46 t-1.34 0.42 l-1.2 0 l-0.14 -0.14 l0 -14.16 l0.14 -0.14 l0.82 0 q1.14 0 1.7 0.98 q1.14 -1.14 2.78 -1.14 q0.84 0 1.48 0.37 t1.09 1.05 t0.68 1.64 t0.23 2.16 t-0.31 2.18 t-0.85 1.66 t-1.27 1.05 t-1.59 0.37 z M35.879999999999995 12.219999999999999 q-0.84 0 -1.46 0.8 l0 4.4 q0.76 0.46 1.3 0.46 q1.36 0 1.36 -3.02 q0 -2.64 -1.2 -2.64 z M41.85999999999999 17.32 l2.36 -3.16 q0.66 -0.88 1.62 -1.88 l-0.06 -0.1 q-1.48 0.16 -2.48 0.16 l-1.54 0 q-0.12 -0.48 -0.12 -1.02 t0.18 -1.3 l6.96 0 q0.42 1.22 0.42 1.72 t-0.3 0.92 l-2.46 3.26 q-0.94 1.24 -1.5 1.8 l0.06 0.1 q0.88 -0.12 1.58 -0.12 l0.7 0 q1.18 0 1.86 -0.34 q0.32 0.78 0.32 1.26 q0 1.38 -1.66 1.38 l-6.04 0 q-0.34 -0.96 -0.34 -1.55 t0.44 -1.13 z M58.13999999999999 10.9 q1.44 1.44 1.44 4.12 q0 1.2 -0.31 2.18 t-0.9 1.67 t-1.45 1.06 t-1.98 0.37 t-1.97 -0.38 t-1.44 -1.07 t-0.89 -1.67 t-0.3 -2.16 q0 -1.2 0.3 -2.17 t0.88 -1.67 t1.44 -1.08 t1.98 -0.38 q1.98 0 3.2 1.18 z M54.959999999999994 12.059999999999999 q-0.44 0 -0.71 0.21 t-0.43 0.57 t-0.22 0.83 t-0.06 1.01 q0 0.84 0.05 1.45 t0.2 1.02 t0.42 0.61 t0.71 0.2 q0.88 0 1.16 -0.77 t0.28 -2.19 q0 -1.44 -0.28 -2.19 t-1.12 -0.75 z M69.97999999999999 13.4 l0 4.1 q0 1.32 0.48 1.98 q-0.76 0.68 -1.82 0.68 q-1.04 0 -1.42 -0.48 t-0.38 -1.46 l0 -4.26 q0 -0.68 -0.18 -1 t-0.7 -0.32 q-0.3 0 -0.68 0.16 t-0.78 0.52 l0 6.68 q-0.34 0.06 -0.74 0.09 t-0.82 0.03 t-0.82 -0.03 t-0.74 -0.09 l0 -9.98 l0.14 -0.14 l1.18 0 q1.22 0 1.64 1.2 q1.4 -1.24 2.78 -1.24 q1.4 0 2.13 0.97 t0.73 2.59 z M80.1 16.02 l-5.22 0 q0.04 0.9 0.46 1.4 t1.38 0.5 q0.48 0 1.11 -0.14 t1.45 -0.46 q0.66 0.68 0.82 1.84 q-1.6 1.14 -3.92 1.14 q-1.26 0 -2.11 -0.4 t-1.38 -1.12 t-0.75 -1.7 t-0.22 -2.14 q0 -1.12 0.27 -2.07 t0.82 -1.65 t1.4 -1.1 t1.99 -0.4 q0.96 0 1.73 0.32 t1.31 0.88 t0.83 1.34 t0.29 1.7 q0 1.22 -0.26 2.06 z M74.85999999999999 13.86 l2.64 0 l0 -0.22 q0 -0.74 -0.33 -1.22 t-0.99 -0.48 q-0.64 0 -0.95 0.45 t-0.37 1.47 z"></path></g></svg>